<?xml version="1.0" encoding="utf-8"?>
<!-- Generator: Adobe Illustrator 26.0.0, SVG Export Plug-In . SVG Version: 6.00 Build 0)  -->
<svg version="1.1" id="Layer_1" xmlns="http://www.w3.org/2000/svg" xmlns:xlink="http://www.w3.org/1999/xlink" x="0px" y="0px"
	 viewBox="0 0 980.6 959.2" style="enable-background:new 0 0 980.6 959.2;" xml:space="preserve">
<g>
	<path d="M295.7,130.2c-7.4-3.2-16.6-5.6-27.8-7.3c-3,10.9-4.6,20.3-4.6,28.4s1.3,14.3,4.2,18.7c4.2,6.4,9.7,10.4,16.6,12
		c6.8,1.7,14.1,0.3,19.8-3.7c6.3-4.1,10.1-9.6,11.4-16.6c1.3-7-0.2-14.2-4.2-20.1C308.2,137.2,303.1,133.4,295.7,130.2z
		 M301.9,170.9c-0.4,0.7-1.1,1.4-1.8,1.8c-3.5,2.2-7.6,3.3-11.7,3.2c-4.5,0-8.7-2.1-12.6-6.3c-0.4-0.5-0.6-1.1-0.6-1.7
		c0.1-0.7,0.4-1.3,1-1.6c0.5-0.3,1-0.4,1.6-0.4c0.6,0,1.1,0.3,1.5,0.7c3.1,3.3,6.3,4.9,9.7,4.8c3,0,6-0.8,8.6-2.4
		c0.7-0.6,1.6-0.9,2.5-0.9c0.7,0.1,1.3,0.4,1.6,1C302.1,169.6,302.2,170.3,301.9,170.9z"/>
	<path d="M360.6,186.9c-4.9-12.3-9.7-24.5-14.6-36.8c-6.5-16.5-13.1-33.1-19.6-49.6l-19.1-48.3c-2-5.2-4-10.3-6.2-15.7
		c-45.9,18.7-88.7,44.3-126.8,76c3,3.3,5.5,6.2,8,9c5.1,5.5,10.3,11,15.4,16.5c8.2,8.7,16.3,17.4,24.4,26.1
		c5.1,5.5,10.3,11,15.4,16.5l24.6,26.3c5.3,5.6,10.5,11.3,15.8,16.9c9,9.6,18,19.1,27,28.7c4.2,4.5,8.3,9.1,12.5,13.5
		c0.8,0.6,1.8,0.7,2.7,0.3c4.1-2.9,8-6.2,12.3-8.8c11.5-6.9,23.1-13.6,34.7-20.3c3-1.8,6.3-3,9.4-4.6c0.8-0.6,1.2-1.5,1.1-2.5
		C372,215.7,366.3,201.3,360.6,186.9z M321.2,163.1c-1.7,8.5-6.4,15.3-14,20.3c-7.7,5-15.7,6.5-24.3,4.6
		c-8.6-1.9-15.3-6.8-20.4-14.6c-3.6-5.6-5.4-13.1-5.2-22.6c0.2-9.5,2.3-20.9,6.3-34.4c14,1.8,25.3,4.6,34,8.2
		c8.7,3.6,14.9,8.3,18.5,13.9C321.2,146.3,322.9,154.5,321.2,163.1z"/>
</g>
<g>
	<rect x="392.6" y="121.9" transform="matrix(0.988 -0.1546 0.1546 0.988 -14.9621 63.1522)" width="11.6" height="11.6"/>
	<rect x="405.2" y="82.9" transform="matrix(0.988 -0.1546 0.1546 0.988 -8.7798 64.6337)" width="11.6" height="11.6"/>
	<rect x="408" y="101" transform="matrix(0.988 -0.1546 0.1546 0.988 -11.5449 65.2822)" width="11.6" height="11.6"/>
	<rect x="420.5" y="62" transform="matrix(0.988 -0.1546 0.1546 0.988 -5.3637 66.746)" width="11.6" height="11.6"/>
	<rect x="389.8" y="103.8" transform="matrix(0.988 -0.1546 0.1546 0.988 -12.1968 62.5011)" width="11.6" height="11.6"/>
	<rect x="402.4" y="64.8" transform="matrix(0.988 -0.1546 0.1546 0.988 -6.0144 63.9808)" width="11.6" height="11.6"/>
	<rect x="387.1" y="85.7" transform="matrix(0.988 -0.1546 0.1546 0.988 -9.4304 61.8662)" width="11.6" height="11.6"/>
	<path d="M329.3,26.7C355,91.8,380.8,156.9,406.6,222c23.2-7.2,46.6-11,70.4-12.6V0C426.2,1.7,377,9.8,329.3,26.7z M433.3,135
		l-2.8-18.1l-11.6,1.8l2.8,18.1L388,142l-9.3-61l18.1-2.8l-2.8-18l42.8-6.6l5.5,36.2l18.1-2.8l6.6,42.8L433.3,135z"/>
	<rect x="447" y="113.6" transform="matrix(0.988 -0.1546 0.1546 0.988 -13.0243 71.4646)" width="11.6" height="11.6"/>
	<rect x="426.1" y="98.3" transform="matrix(0.988 -0.1546 0.1546 0.988 -10.9097 68.0487)" width="11.6" height="11.6"/>
	<polygon points="454.9,94.7 443.4,96.4 445.2,108 456.7,106.2 	"/>
	<rect x="423.3" y="80.1" transform="matrix(0.988 -0.1546 0.1546 0.988 -8.129 67.3967)" width="11.6" height="11.6"/>
</g>
<path d="M507.8,1c-0.1,0.6-0.1,1.1-0.1,1.7c0,68.3,0,136.7,0,205.1c0,1.4,0.4,1.9,1.8,2c2.3,0.2,4.6,0.3,6.9,0.6
	c7.4,0.9,14.8,1.4,22.1,2.9c12.5,2.6,24.9,5.8,37.8,8.9c25.6-64.5,51.3-129.5,77.1-194.8C606,11.4,557.7,2.2,507.8,1z M596.9,122.1
	c-3.8,2.9-8.7,3.9-13.4,2.9c-1.9-0.4-3.7-1.1-5.4-2.1c-1.7-1-3.1-2.3-4.2-3.9l-6-8.8l4.1-2.7l5.7,8.5c0.7,1.1,1.7,2,2.9,2.7
	c1.2,0.7,2.5,1.2,3.9,1.5c3.4,0.7,7-0.1,9.7-2.2c2.9-2,4.8-5.1,5.4-8.6c0.7-3.4,0.1-6.9-1.8-9.8c-1.8-2.9-4.7-5-8.1-5.6
	c-1.3-0.3-2.7-0.3-4.1-0.1c-1.4,0.2-2.7,0.7-3.8,1.5l-30.7,19.2c-1.7,1-3.5,1.7-5.5,1.9c-1.9,0.5-3.9,0.6-5.8,0.1
	c-4.7-0.9-8.8-3.7-11.3-7.8c-2.6-4.1-3.4-9.1-2.4-13.8c0.9-4.7,3.6-8.9,7.5-11.6c3.9-2.7,8.7-3.8,13.3-2.8c1.9,0.4,3.8,1.1,5.5,2.1
	c1.7,1,3.2,2.4,4.3,4l6.1,8.9l-4.1,2.7l-5.9-8.6c-0.8-1.2-1.8-2.1-3-2.8c-1.2-0.7-2.5-1.2-3.9-1.5c-3.3-0.7-6.8,0-9.6,2
	c-2.8,2-4.8,5-5.4,8.4c-0.7,3.4-0.1,7,1.7,10c1.7,3,4.7,5.1,8.1,5.7c1.3,0.3,2.7,0.3,4.1,0.1c1.4-0.2,2.7-0.6,3.9-1.4L579.4,91
	c1.7-1.1,3.5-1.8,5.5-2.1c1.9-0.3,3.9-0.2,5.8,0.1c4.7,0.8,8.8,3.6,11.3,7.7c2.7,4,3.6,8.9,2.5,13.6
	C603.6,115.1,600.9,119.3,596.9,122.1z"/>
<g>
	<polygon points="680,139.2 671.7,152.2 683.1,173.2 706.9,174.7 715.1,161.8 691.5,160 	"/>
	<polygon points="679.2,126.4 694.8,154.8 727.3,157 711.4,128.7 	"/>
	<path d="M808.3,114.7c-4.9-3.9-9.6-8.1-14.7-11.7c-12.3-8.8-24.5-17.6-37.1-25.8c-11-7.1-22.4-13.7-34-19.8
		c-13.2-6.9-26.7-13-40.6-19.7c-3.8,9.6-7.4,18.6-10.9,27.6c-7.2,18.4-14.5,36.8-21.8,55.2c-7,17.5-13.9,34.9-20.8,52.4
		c-7.7,19.5-15.4,38.9-23.1,58.3c-0.7,1.8-0.6,2.5,1.2,3.4c7.6,3.9,15.4,7.5,22.7,12c11.7,7.2,23.1,14.9,34.5,22.6
		c1.5,1,2.2,1,3.4-0.3c4.4-4.8,8.9-9.7,13.4-14.5l26.7-28.5c5.6-5.9,11.1-11.8,16.6-17.7c8.9-9.4,17.8-18.8,26.6-28.2
		c5.5-5.9,11.1-11.8,16.6-17.7c9.1-9.7,18.1-19.3,27.2-28.9c4.7-5,9.5-10,14.3-14.9C809.9,117,809.9,115.9,808.3,114.7z
		 M721.6,187.4l-4.6-2.9l13.8-21.6l-9.2-0.9l-11.7,18.4l-30.1-2l-14.5-26.3l11.7-18.4l-7.5-13.5l45.4,3l22.1,39.9L721.6,187.4z"/>
</g>
<g>
	<path d="M789.1,235c0,0-0.1,0.1-0.1,0.1c-4.2,5-6.3,11.5-5.6,18c0.5,6.6,3.7,12.6,8.8,16.7h0c10.4,8.7,25.8,7.3,34.5-3.1
		c0,0,0.1-0.1,0.1-0.1l15.7-19l-18.9-15.7C813.2,223.2,797.8,224.6,789.1,235z M822.6,243.2c-0.2,0.3-0.5,0.4-0.8,0.5l-13.1,3.3
		l9.4,9.5c0.5,0.5,0.7,1.2,0.4,1.9c-0.3,0.6-0.8,1-1.5,1l-22.7,0.9h0c-0.3,0.1-0.7,0-0.9-0.3c-0.2-0.2-0.4-0.6-0.4-0.9
		c-0.1-0.3,0-0.7,0.2-0.9c0.2-0.2,0.4-0.4,0.7-0.5l13.1-3.3l-9.4-9.5c-0.5-0.5-0.7-1.2-0.4-1.9c0.3-0.6,0.8-1,1.5-1l22.7-0.9
		c0.4,0,0.7,0.1,1,0.3c0.3,0.2,0.5,0.5,0.5,0.9C822.9,242.6,822.8,243,822.6,243.2z"/>
	<path d="M904.4,224c-9.2-13.4-18.7-26.7-28.8-39.4c-9.1-11.4-19.1-22.1-28.9-33c-3.5-3.9-7.5-7.5-11.1-11.1c-3.6-3.6-3.6-3.6-7,0.2
		l-0.6,0.6c-5,5.4-10,10.7-15,16.1c-8.6,9.1-17.1,18.2-25.6,27.3c-4.7,5.1-9.4,10.2-14.2,15.3l-26.7,28.5c-4.6,4.9-9,9.8-13.6,14.7
		c-8.2,8.8-16.4,17.6-24.6,26.3c-4.4,4.7-9,9.4-13.5,14.1l-7.1,8c4.5,5,9,9.7,13.2,14.8c5.3,6.4,10.6,13,15.4,19.8
		c4.3,6,8.1,12.3,11.9,18.6c1.3,2.2,2.4,2.6,4.8,1.4c6.9-3.6,14.1-6.9,21.1-10.3l46.1-22.5c15.3-7.4,30.6-14.9,45.9-22.4
		c11.4-5.5,22.7-11.2,34-16.7c14-6.8,27.9-13.7,42.4-20.7C916.4,243.6,911,233.6,904.4,224z M830.6,269.5
		c-4.9,6.1-12.1,10-19.9,10.6c-7.8,1-15.7-1.4-21.6-6.6c-2.7-2.2-5-4.9-6.7-8c-1.7-3-2.8-6.2-3.5-9.6l-9,0.8l-0.5-4.8l9-0.8
		c0-3.4,0.5-6.8,1.6-10.1c1.1-3.3,2.9-6.4,5.1-9.1c10.3-12.6,28.9-14.4,41.5-4c0,0,0.1,0.1,0.1,0.1l22.7,18.8L830.6,269.5z"/>
</g>
<path d="M976.5,418.3c-0.9-5.6-1.8-11.2-2.8-16.8c-1.9-10.2-3.6-20.4-5.9-30.5c-4.2-18.8-9.8-37.2-16.6-55.2
	c-4.3-11.3-9.3-22.3-13.9-33.5c-0.9-2.2-1.9-2.3-4-1.3c-13.7,6.8-27.4,13.4-41,20l-47.4,23.1c-14.8,7.2-29.7,14.4-44.6,21.7
	c-11.6,5.7-23.1,11.4-34.7,17.1c-7.3,3.5-14.6,7-21.3,10.3c4.2,12.1,8.7,23.7,12.1,35.8c2.8,9.5,4.4,19.3,6.4,29
	c0.3,1.5,1,2.2,2.6,2.1c5.1-0.4,10.1-0.7,15.2-1.1l13-1.2c7.4-0.7,14.9-1.5,22.3-2.2l14.1-1.2c7.5-0.7,15.1-1.5,22.6-2.2
	c4.8-0.5,9.6-0.7,14.4-1.2c7.1-0.7,14.1-1.5,21.2-2.2c5.1-0.5,10.1-0.7,15.2-1.2c7.8-0.7,15.6-1.5,23.4-2.2l13.8-1.2
	c7.2-0.7,14.5-1.5,21.7-2.2c4.7-0.5,9.4-0.9,14.2-1.3C976.6,419.9,976.6,419.1,976.5,418.3z M871.8,336.7c1.4-2.2,3.6-3.8,6.2-4.4
	c2.6-0.6,5.4-0.1,7.6,1.4c4.6,3,5.9,9.1,3,13.8c-3,4.7-9.2,6-13.8,3c-2.2-1.4-3.8-3.7-4.4-6.3C869.8,341.6,870.3,338.9,871.8,336.7z
	 M876.6,411.8c-0.9,1.4-2.3,2.5-4,2.8l-14.2,3.1l-5.1-23.1l10.6-2.3c-2.4-1.7-4.5-3.8-6.1-6.3c-1.7-2.5-2.9-5.3-3.5-8.3
	c-0.7-3-0.8-6-0.3-9c0.5-2.9,1.4-5.8,2.9-8.4l-10.6,2.3l-4.9-23.2l14.2-3.1c1.7-0.4,3.4-0.1,4.8,0.9c1.4,0.9,2.5,2.3,2.8,4l2.7,12.5
	c0.2,1,0.2,2.1-0.1,3.1c-0.3,1.1-0.8,2-1.6,2.8c-2.1,2.2-3.6,4.9-4.3,7.8c-0.7,3-0.8,6-0.2,9c0.7,3,2,5.7,3.9,8.1
	c1.9,2.4,4.4,4.2,7.2,5.4c1,0.5,1.9,1.1,2.6,1.9c0.7,0.8,1.2,1.7,1.4,2.7l2.7,12.5C877.9,408.7,877.6,410.4,876.6,411.8z
	 M881.8,382.5c-0.2,4-0.9,6.9-2.3,9c-0.6-1.5-1.5-2.8-2.6-3.9c-1.1-1.2-2.5-2.1-4-2.7c-2-0.8-3.8-2.1-5.1-3.8
	c-1.3-1.8-2.3-3.8-2.8-5.9c-0.5-2.1-0.4-4.3,0.2-6.3c0.6-2,1.6-3.9,3-5.5c1.1-1.2,2-2.6,2.5-4.1c0.5-1.5,0.8-3.1,0.7-4.7
	c2.2,1.3,4.1,3.7,5.9,7.2c1.7,3.2,2.9,6.5,3.7,10C881.7,375.3,882,378.9,881.8,382.5z M901,404.4c-3,4.7-9.1,6.1-13.8,3.1
	c0,0,0,0,0,0c-2.2-1.5-3.8-3.8-4.4-6.4l0,0c-0.6-2.6-0.1-5.3,1.4-7.5c1.4-2.2,3.6-3.8,6.2-4.4c2.6-0.6,5.4-0.1,7.6,1.4
	C902.6,393.6,903.9,399.7,901,404.4z M905.4,373.6c-3,4.7-9.1,6.1-13.8,3.1c0,0,0,0,0,0c-2.2-1.5-3.8-3.8-4.4-6.4h0
	c-0.6-2.6-0.1-5.3,1.4-7.5c1.4-2.2,3.6-3.8,6.2-4.4c2.6-0.6,5.4-0.1,7.6,1.4c2.3,1.4,3.9,3.7,4.3,6.3
	C907.3,368.7,906.9,371.4,905.4,373.6z"/>
<path d="M980.5,460.1c-0.1-3.6-0.5-7.2-0.8-11c-2.7,0.1-5.4,0.3-8,0.5c-7.7,0.7-15.3,1.5-22.9,2.2c-4.7,0.4-9.4,0.7-14.1,1.2
	c-7.2,0.7-14.5,1.5-21.7,2.2c-5.1,0.5-10.1,0.7-15.2,1.2c-7.7,0.7-15.3,1.5-22.9,2.2c-4.6,0.4-9.2,0.7-13.8,1.2
	c-7.1,0.7-14.1,1.6-21.2,2.2c-5.2,0.5-10.3,0.7-15.5,1.2c-8.9,0.8-17.8,1.9-26.7,2.7c-7.2,0.6-14.5,1.1-21.8,1.7
	c-3.2,0.2-6.3,0.7-9.1,1.1c-0.5,11.7-0.7,23.2-1.7,34.4s-2.8,22.4-4.3,33.8c11,3.2,22.3,6.4,33.9,9.7c17.1,4.8,34.2,9.5,51.3,14.3
	l33,9.3c15.9,4.5,31.9,8.9,47.8,13.4l37.8,10.5c1.5,0.5,2.4,0.3,2.6-1.7s0.9-3.9,1.3-5.9c2.8-14.6,5.7-29.1,8.1-43.8
	c1.4-9,2.1-18,2.8-27c0.6-7.4,1-14.8,1.1-22.2C980.7,482.4,980.6,471.2,980.5,460.1z M926,541.6l-79.6-7.1l0.5-6l31.9,2.9l1-11.5
	l30.4,2.7c5.2,0.5,9.3,2.4,12.2,5.9S926.5,536.3,926,541.6z M930.8,487.9l-27.9-2.5l-0.6,6.5l27.9,2.5l-0.5,6l-27.9-2.5l-0.6,6.5
	l27.9,2.5l-0.5,6l-27.9-2.5c-3.6-0.3-7.1-1.9-9.6-4.5c-2.4-2.5-4-5.8-4.4-9.3l-36.6-3.3l0.5-6.2l36.6,3.3c1-3.4,3.1-6.3,6-8.3
	c2.9-2.2,6.6-3.1,10.2-2.7l27.9,2.5L930.8,487.9z"/>
<g>
	<path d="M873.7,638.4c-4.3-2.5-9.5-3-14.3-1.5c-4.8,1.4-8.8,4.6-11.2,9c-2.5,4.3-3,9.5-1.5,14.3c1.4,4.8,4.6,8.8,9,11.2
		c4.3,2.5,9.5,3,14.3,1.5c4.8-1.4,8.8-4.6,11.2-9c2.5-4.3,3-9.5,1.5-14.3C881.3,644.8,878.1,640.8,873.7,638.4z"/>
	<path d="M956.4,622.3c-20.4-5.6-40.9-11.4-61.3-17.1l-60-16.8c-12.2-3.4-24.3-6.9-36.5-10.3c-15.4-4.3-30.8-8.5-46.6-12.9
		c-0.5,0.9-1,1.8-1.6,2.7c-3.9,9-7.4,18.4-11.8,27.2c-4.7,9.6-10.4,18.8-15.6,28.2c-0.7,1.4-1.4,2.3,0.7,3.7
		c6.8,4.6,13.2,9.6,19.8,14.5c11.3,8.4,22.6,16.7,33.9,25.1c11.7,8.7,23.4,17.3,35.1,25.9c12.1,8.9,24.2,17.9,36.3,26.9l35.2,26.2
		c3,2.2,5.9,4.3,8.8,6.4c1.4-1.8,2.6-3.2,3.6-4.7c12.3-17.7,23.5-36.3,33.3-55.5c5.4-10.7,10.4-21.6,14.9-32.6
		c4.7-11.3,8.5-22.8,12.7-34.3C957.7,624,958.5,622.9,956.4,622.3z M887.7,667.2c0,0.1-0.1,0.1-0.1,0.2c-3.2,6.1-8.8,10.6-15.4,12.4
		c-6.5,2-13.6,1.3-19.6-2.1c-5.6-3-9.8-7.9-12-13.8c-2.3-5.9-2.2-12.4,0.1-18.2l-10.5-5.8l-4.5,8.3l-6.2-3.4l4.5-8.3l-8.3-4.5
		l3.3-6.1l8.3,4.5l4.5-8.3l6.2,3.4l-4.5,8.3l10.5,5.8c3.7-5.1,9.1-8.7,15.3-9.9c6.1-1.4,12.6-0.5,18.1,2.6
		C889.9,639.1,894.5,654.7,887.7,667.2z"/>
</g>
<g>
	<path d="M709.3,757.5l23.9,26.9l23.9-21.3l6.1,6.9l9.6-19.3l5.3,5.9l7.2-15.9L760,712.3L709.3,757.5z M737.7,767l-10.6-11.9l4.5-4
		l10.6,11.9L737.7,767z M749.6,756.3L739,744.4l4.5-4l10.6,11.9L749.6,756.3z M761.5,745.7l-10.6-11.9l4.5-4l10.6,11.9L761.5,745.7z
		"/>
	<path d="M872.5,774.8c-2.5-1.6-4.8-3.4-7.2-5.1l-42.5-31.5l-33.2-24.7c-11.1-8.3-22.1-16.5-33.2-24.7c-10.4-7.7-20.9-15.3-31.3-23
		c-7.1-5.3-14.3-10.5-21.5-15.8c-15.1,18.3-32.8,34.4-52.4,47.8c0.2,0.6,0.4,1.2,0.7,2l18.3,28.8c13.5,21.3,26.9,42.7,40.4,64
		c9.9,15.8,19.9,31.6,29.8,47.3c7,11.1,14.1,22.1,21.1,33.2c2.1,3.3,2.1,3.4,5.1,1.2c12.4-9.1,24.9-17.9,36.9-27.5
		c9.8-7.9,19.2-16.3,28.3-25c8.7-8.3,16.8-17.2,25-26c5.5-5.9,10.7-12.1,16-18.1C873.8,776.6,873.8,775.7,872.5,774.8z M779.5,767.2
		l-5.3-6l-9.5,19.4l-8-9l-10.5,9.4l18.2,26.4l-7.5,6.7l-24.2-21.2l0.1,0l-31.9-35.8l59.6-53.3l32,35.9L779.5,767.2z"/>
</g>
<g>
	<path d="M663.3,811.1c-2.9-7.8-8.6-14.3-16.1-18.1c-7.3-3.9-15.8-4.8-23.8-2.7l3,7.6c2.1-0.8,4.4-0.7,6.4,0.3
		c2.1,0.9,3.6,2.7,4.4,4.8l1.6,4.1l26.5,11.7c-0.2-1.3-0.4-2.6-0.8-3.9C664.2,813.6,663.7,812.4,663.3,811.1z"/>
	<path d="M737.1,890c-2.9-4.4-5.8-8.9-8.6-13.4c-13.4-21.3-26.9-42.5-40.3-63.8c-10-15.8-19.9-31.5-29.8-47.3c-5-8-10-16-15.1-24
		c-5.8-9.2-11.6-18.3-17.5-27.6c-20.9,11.3-42.5,20.5-65.8,25.9c13.4,68.9,26.6,137.5,39.9,206.4l2.3-0.5
		c13.2-3.6,26.6-6.8,39.7-10.8c18.1-5.4,35.8-12.1,52.9-20.2c13.9-6.7,27.4-14.1,41.2-21.1C737.8,892.7,738.3,891.8,737.1,890z
		 M668.3,839.6c-2.1,4.7-5.1,9-8.7,12.6c-11.7,11.4-29.1,14.5-44,7.9c-4.7-2.1-9-5.1-12.6-8.7c-11.4-11.7-14.5-29.1-7.9-44
		c2.1-4.7,5.1-9,8.7-12.6c3.8-3.8,8.4-6.7,13.4-8.6c9.9-3.9,20.9-3.6,30.6,0.7c4.7,2.1,9,5.1,12.6,8.7c3.8,3.8,6.7,8.4,8.6,13.4
		C672.9,818.9,672.6,829.9,668.3,839.6z"/>
	<path d="M642.9,828.4l7.7-3l-3.2-8.2l-24,9.3c-1,0.4-2.1,0.3-3.1-0.2c-1-0.5-1.7-1.4-2.1-2.4l-4.6-11.8l-4,1.6
		c-1.7,0.7-3.6,0.8-5.4,0.3c-1.7-0.5-3.2-1.6-4.3-3c-0.8,2-1.4,4-1.7,6.1c-0.4,2.1-0.6,4.2-0.6,6.3c0,2.1,0.2,4.2,0.6,6.3
		c0.4,2.1,1,4.1,1.8,6.1c2.4,6.4,6.7,11.9,12.4,15.8c5.6,3.9,12.2,6,19,6.2l-0.7-1.7c-0.8-2.1-0.8-4.5,0-6.6
		c0.8-2.1,2.5-3.8,4.6-4.6l8.1-3.2l-3.1-8.1c-0.4-1-0.3-2.1,0.2-3.1C641,829.6,641.9,828.8,642.9,828.4z"/>
</g>
<g>
	<path d="M482.4,867.1c-0.7-1.1-1-2.3-1.1-3.6c-0.1-2.3,0.7-4.5,2.3-6.2c2.4-2.8,6.3-3.8,9.8-2.5c1.1,0.4,2,1,2.9,1.8l7,6.3
		l15.5-17.3c0.3-0.3,0.5-0.6,0.6-1c0.1-0.4,0.1-0.7,0.1-1.1c0-0.7-0.3-1.4-0.9-1.9c-0.5-0.5-1.3-0.7-2-0.7c-0.4,0-0.7,0.1-1,0.3
		c-0.3,0.2-0.6,0.4-0.8,0.7L503,855.1l-4-3.6l11.8-13.1c0.3-0.3,0.5-0.6,0.6-1c0.1-0.4,0.1-0.7,0.1-1.1c0-0.7-0.3-1.4-0.9-1.9
		c-0.5-0.5-1.2-0.8-1.9-0.7c-0.4,0-0.7,0.1-1,0.3c-0.3,0.2-0.6,0.4-0.8,0.6l-11.8,13.2l-4-3.6l11.8-13.1c0.2-0.3,0.4-0.6,0.5-1
		c0.1-0.4,0.2-0.7,0.2-1.1c0-0.7-0.3-1.4-0.9-1.9c-0.5-0.5-1.2-0.8-1.9-0.7c-0.3,0-0.7,0.1-1,0.2c-0.3,0.2-0.7,0.4-0.9,0.7
		l-12.2,13.1l-4-3.6l11.8-13.2c0.3-0.3,0.5-0.6,0.6-1c0.1-0.3,0.1-0.7,0.1-1c0.1-1.4-0.9-2.5-2.3-2.6c-0.2,0-0.4,0-0.6,0l0,0
		c-0.4,0-0.7,0.1-1,0.3c-0.3,0.2-0.6,0.4-0.9,0.6l-28.9,32.3c-0.7,0.8-1.3,1.8-1.6,2.8c-0.3,1-0.5,2.1-0.4,3.1
		c0.1,1.1,0.4,2.1,0.8,3.1c0.4,1,1.1,1.9,1.9,2.6l17.2,15.5c0.8,0.7,1.8,1.3,2.8,1.6c1,0.3,2.1,0.5,3.1,0.4c1-0.1,2.1-0.3,3-0.8
		c1-0.4,1.9-1.1,2.6-1.9l1.5-1.7l-7.8-7C483.8,869.1,483,868.1,482.4,867.1z"/>
	<path d="M569.6,950.7c-1.7-8-3.3-16-4.8-24c-2-10.5-4-21.1-6-31.6c-1.7-8.9-3.5-17.8-5.2-26.7c-2.1-11.4-4.2-22.8-6.3-34.1
		c-1.6-8.3-3.3-16.5-4.9-24.8c-2.1-11.1-4.2-22.3-6.3-33.5c-1.8-9.4-3.6-18.9-5.5-28.3c-0.3-0.8-0.9-1.4-1.7-1.6c-3,0.2-6,0.7-9,1
		c-9,0.8-18.1,1.8-27.1,2.2c-6.8,0.3-13.7-0.3-20.6-0.5c-0.8,0-1.5-0.3-2.2-0.3c-4-0.3-7.9-0.6-11.9-0.8
		c-13.3,68.8-26.5,137.4-39.8,206.3c7.6,0.7,14.6,1.6,21.7,2.2c9.2,0.8,18.4,1.5,27.6,2.3c0.7,0.1,1.3,0.3,1.9,0.6l43.7,0.1
		c0.3-0.2,0.5-0.6,0.8-0.6c6.8-0.4,13.5-0.7,20.3-1.2c4.4-0.3,8.8-0.7,13.2-1.2c6.7-0.9,13.3-1.9,20-2.7
		C569.5,953.2,570,952.7,569.6,950.7z M533.2,862c-0.6,1.7-1.5,3.2-2.7,4.6l-13,14.5c-1.2,1.4-2.7,2.5-4.4,3.2
		c-1.6,0.7-3.3,1.1-5.1,1.2c-1.8,0.1-3.5-0.1-5.2-0.7c-1.7-0.5-3.4-1.5-4.7-2.7l-1.7-1.5l-1.5,1.7c-1.2,1.4-2.7,2.5-4.4,3.2
		c-1.6,0.7-3.3,1.1-5.1,1.2c-1.8,0.1-3.5-0.1-5.2-0.7c-1.7-0.6-3.3-1.5-4.7-2.7l-17.1-15.4c-1.4-1.2-2.5-2.7-3.2-4.4
		c-0.8-1.6-1.2-3.3-1.3-5.1c-0.1-1.8,0.1-3.5,0.7-5.2c0.6-1.7,1.5-3.3,2.7-4.7l28.9-32.3c0.7-0.8,1.6-1.5,2.6-2
		c1-0.4,2.1-0.7,3.2-0.7c2-0.1,4,0.6,5.5,1.9c1.6,1.3,2.7,3.2,3.1,5.3c2,0.1,3.9,0.9,5.3,2.3c1.5,1.3,2.5,3.1,2.8,5
		c4,0.3,7.3,3.3,8.1,7.3c2.1,0.1,4.1,1,5.7,2.4c1.5,1.3,2.5,3.3,2.5,5.3c0.1,1-0.1,2.1-0.4,3.1c-0.3,1-0.9,2-1.6,2.8l-19.2,21.4
		l-10.5-9.4c-0.5-0.4-1-0.8-1.6-1c-0.5-0.2-1.1-0.3-1.7-0.3c-0.9,0-1.7,0.5-2.2,1.2c-0.6,0.6-1,1.4-0.9,2.3c0,0.4,0.1,0.9,0.4,1.2
		c0.3,0.5,0.7,1,1.1,1.4l13.7,12.3c0.8,0.7,1.8,1.3,2.8,1.6c1,0.3,2.1,0.5,3.1,0.4c1-0.1,2.1-0.3,3-0.8c1-0.5,1.8-1.1,2.6-1.9
		l13-14.5c0.7-0.8,1.3-1.8,1.6-2.8c0.3-1,0.4-2.1,0.4-3.2c0-1.2-0.3-2.4-0.9-3.5c-0.6-1-1.2-2-2-2.9l3.7-4.1
		c1.4,1.3,2.5,2.9,3.2,4.7c0.9,1.8,1.3,3.7,1.4,5.7C534.1,858.5,533.8,860.3,533.2,862z"/>
</g>
<g>
	<path d="M344.4,853.9c-1.2-0.6-2.7-0.6-3.9,0c-2.5,1-3.8,3.9-2.8,6.4c0.5,1.2,1.5,2.2,2.7,2.7c2.5,1.1,5.4,0,6.5-2.5
		c0.6-1.2,0.6-2.7,0.1-3.9C346.6,855.4,345.6,854.4,344.4,853.9z"/>
	<polygon points="373.4,835.9 373,855.8 387.2,841.9 	"/>
	<path d="M359.2,717.1L246.8,895.2c44.2,24.8,92,42.7,141.6,53.2c13-69,26-137.5,39-206.2C403.7,736.8,380.8,728.3,359.2,717.1z
		 M352.6,854.6c0.7,1.7,1,3.6,0.9,5.4l14.6,6.3l0.5-32.7c1.3-2.7,3.7-4.8,6.6-5.5c3.2-0.9,6.6-0.6,9.6,0.8c3.1,1.2,5.6,3.5,7.1,6.5
		c1.4,2.7,1.6,5.8,0.5,8.6l-23.5,22.7l7.8,3.4l-2.4,5.5L351,865.4c-1.6,1.7-3.7,3-6,3.6c-2.3,0.6-4.7,0.4-6.9-0.5
		c-2.2-0.9-4-2.6-5.1-4.7c-1.2-2.1-1.7-4.5-1.5-6.9l-23.3-10.1l2.4-5.5l7.8,3.4l0.5-32.7c1.3-2.7,3.7-4.8,6.6-5.5
		c6.6-1.7,13.4,1.3,16.7,7.3c1.5,2.6,1.6,5.8,0.5,8.6l-23.5,22.7l14.6,6.3c1.3-1.4,2.8-2.5,4.6-3.1c1.7-0.7,3.6-1,5.4-0.9L363,803
		l-33.8-14.6l2.4-5.5l73.4,31.9l-2.4,5.5l-33.9-14.7L349.5,850C350.9,851.3,352,852.8,352.6,854.6z"/>
	<polygon points="323.9,814.4 323.5,834.3 337.7,820.4 	"/>
</g>
<path d="M279.9,653.9l-171.6,127c1,0.7,2,1.5,2.9,2.3c8.1,9,16,18.2,24.4,27c6.4,6.8,13.4,13.1,20.4,19.4c6.6,6,13.4,11.8,20.3,17.6
	c13.3,11.2,27.4,21,41.9,30.5c1.9,1.2,2.7,1.2,3.9-0.8c9.3-14.8,18.7-29.5,28-44.2c13.5-21.3,26.9-42.7,40.4-64
	c10.8-17.2,21.7-34.3,32.5-51.5l10.3-16.2C313.5,687.7,295.6,671.8,279.9,653.9z M218.8,797.1l-5.7-26.7l5.8-1.2l3.6,16.8l17.2-26.6
	l5.2,3.2l-17.2,26.5l16.6-3.5l1.2,5.8L218.8,797.1z M240.9,744.1l-3.5-16.6L220.2,754l-5-3.3l17.2-26.6l-16.8,3.5l-1.2-5.8l26.7-5.7
	l5.6,26.8L240.9,744.1z"/>
<path d="M260.4,628.3c-5.8-9.3-11.8-18.4-16.8-28.1c-5.6-11-10.3-22.5-15.6-34.1L22.5,623.7c15.4,48.2,38.4,92.1,67.9,132.9
	c0.5-0.2,0.9-0.4,1.3-0.7c7.4-5.4,14.8-10.8,22.2-16.3c12.5-9.2,24.9-18.3,37.3-27.5c11.3-8.5,22.7-16.9,34.1-25.3
	c11.7-8.6,23.3-17.2,35-25.9c13.1-9.7,26.2-19.5,39.4-29.2C261.2,630.5,261.5,630.1,260.4,628.3z M141.4,693.5
	c-1.3,0.9-3,1.1-4.5,0.7c-1.6-0.3-2.9-1.2-3.8-2.6l-36.6-57.2c-0.9-1.3-1.1-3-0.7-4.5c0.3-1.6,1.2-2.9,2.6-3.8l14.3-9.1l3.2,5.1
	l-14.3,9.1l36.6,57.3l14.3-9.1l3.2,5L141.4,693.5z M160.6,681.3l-12.9-20.2c-0.3-0.4-0.5-1-0.5-1.5c0-0.6,0.1-1.1,0.4-1.6l6.1-10.2
	l-29.5,3c-0.6,0-1.1-0.1-1.6-0.4c-0.4-0.3-0.8-0.7-1.1-1.1c-0.2-0.5-0.4-1-0.5-1.5c0-0.6,0.1-1.1,0.4-1.6l8.2-13.8l-11.9-18.6
	l5.1-3.2l12.9,20.2c0.3,0.4,0.5,1,0.5,1.5c0,0.6-0.1,1.1-0.4,1.6l-6.1,10.2l29.6-3.1c0.6-0.1,1.1,0,1.6,0.3c0.5,0.3,0.9,0.7,1.2,1.1
	c0.3,0.5,0.4,1.1,0.4,1.7c0,0.6-0.1,1.1-0.4,1.6l-8.3,13.8l11.9,18.6L160.6,681.3z M187.7,661.8c-0.3,1.6-1.2,2.9-2.6,3.8l-14.3,9.1
	l-3.2-5.1l14.3-9.1l-36.6-57.3l-14.3,9.1l-3.2-5.1l14.3-9.1c1.3-0.9,3-1.1,4.5-0.7c1.6,0.3,2.9,1.3,3.8,2.6l36.6,57.3
	C187.9,658.6,188.1,660.3,187.7,661.8z"/>
<path d="M219.9,534.9c-1.8-13.2-3.9-26.4-5.4-39.6c-0.8-6.8-0.5-13.7-0.7-20.6c-0.1-2.1-0.1-4.2,0-6.2c0.1-1.8-0.7-2.4-2.2-2.5
	l-8.9-0.6c-4.9-0.4-9.8-0.7-14.7-1.2c-7.3-0.7-14.7-1.5-22-2.2c-5.3-0.5-10.6-0.7-15.8-1.2c-9.5-0.9-18.9-1.9-28.4-2.8
	c-8.3-0.7-16.5-1.5-24.8-2.2c-9.7-0.8-19.3-1.5-29-2.3l-7.7-0.6c-7.4-0.7-14.9-1.5-22.3-2.2c-5.3-0.5-10.6-0.7-15.8-1.2
	c-7.1-0.6-14.2-1.4-21.2-2.1L0,454v43.2c0.3,0.7,0.5,1.4,0.6,2.2c0.4,5.8,0.6,11.6,1.3,17.5c1,9.7,2,19.4,3.4,29.1
	c1.4,9.7,3.2,19.4,5,29c1.3,6.9,3,13.6,4.5,20.5c18.3-5.1,36.2-10.1,54.2-15.2c13.8-3.9,27.5-7.9,41.2-11.7
	c19.2-5.3,38.4-10.6,57.6-16c16.6-4.7,33.2-9.6,49.9-14.1C220.4,537.8,220.1,536.6,219.9,534.9z M132.7,544.3l-35.5-20.9l11.9-20.4
	l-29.4-17.2l3.2,12.3l-5.8,1.5l-5.8-22l21.9-5.8l1.5,5.7l-11.9,3.1l34.6,20.2l-11.8,20.6l30.2,17.6L132.7,544.3z"/>
<path d="M219.7,361c-15.1-7.4-30.3-14.7-45.4-22.1c-15.8-7.8-31.7-15.5-47.6-23.3L82.3,294c-10.9-5.3-21.7-10.7-32.5-16
	c-1.4-0.7-2.8-1.3-4.6-2.2c-10.7,22.4-19.7,45.7-26.9,69.5C11.2,369.1,6.1,393.4,3,418c7.2,0.6,14.4,1.3,21.6,1.9
	c5.2,0.5,10.3,0.8,15.5,1.2c8.1,0.7,16.3,1.5,24.5,2.2l14.4,1.2c7.7,0.7,15.3,1.5,22.9,2.2c5.1,0.5,10.1,0.7,15.2,1.2
	c7.9,0.7,15.8,1.5,23.7,2.2c4.9,0.5,9.9,0.7,14.9,1.2c7.2,0.7,14.5,1.6,21.7,2.2c5.4,0.5,10.8,0.8,16.1,1.2c2.6,0.3,5.1,0.6,7.7,0.8
	l15.7,1.5c4-23.3,10.9-45.9,20.5-67.5C231.3,366.6,225.5,363.8,219.7,361z M93.2,381.2c-0.5,2.6-2,4.9-4.3,6.2
	c-2.1,1.1-3.6,3.2-4.1,5.5c-0.6,2.2-0.3,4.5,0.8,6.4c1.2,1.8,1.4,4.2,0.6,7.3v0l-5.8-1.4c0.6-2.2,0.3-4.5-0.8-6.5
	c-1.1-1.9-1.3-4.3-0.6-7.2c0.5-2.6,2-4.9,4.3-6.2c2.1-1.2,3.6-3.2,4.1-5.6c0.6-2.4,0.2-4.9-1.1-7c-1.3-2.3-1.7-5-1-7.5
	c0.5-2.6,2-4.9,4.3-6.2c2.1-1.2,3.6-3.2,4.1-5.6c0.6-2.4,0.2-4.9-1.1-6.9c-1.4-2.3-1.7-5-1-7.5c0.7-2.9,2-5,3.8-6.1
	c1.9-1.2,3.2-3.2,3.7-5.4l5.8,1.4c-0.7,3-2,5.1-3.9,6.2c-1.9,1.2-3.2,3.1-3.6,5.3c-0.6,2.4-0.2,4.8,1.1,6.9
	c2.6,4.8,1.2,10.7-3.3,13.8c-2.1,1.2-3.6,3.2-4.1,5.6c-0.6,2.4-0.2,4.9,1.1,6.9C93.6,375.9,93.9,378.6,93.2,381.2z M108.8,384.9
	c-0.5,2.6-2,4.9-4.3,6.2c-2.1,1.2-3.6,3.2-4.1,5.5c-0.6,2.2-0.3,4.5,0.8,6.4c1.1,1.8,1.3,4.3,0.6,7.3l-5.8-1.4
	c0.6-2.2,0.3-4.5-0.8-6.5c-1.1-1.9-1.3-4.3-0.6-7.2c0.5-2.6,2-4.9,4.3-6.2c2.1-1.2,3.6-3.2,4.1-5.6c0.6-2.4,0.2-4.9-1.1-7
	c-1.4-2.3-1.7-5-1-7.5c0.5-2.6,2-4.9,4.3-6.2c2.1-1.2,3.6-3.2,4.1-5.6c0.6-2.4,0.2-4.9-1.1-6.9c-1.4-2.2-1.8-5-1-7.5
	c0.7-2.9,2-5,3.8-6.1c1.9-1.2,3.2-3.2,3.7-5.4l5.8,1.4c-0.7,3-2,5.1-3.9,6.2c-1.9,1.2-3.2,3.1-3.6,5.3c-0.6,2.4-0.2,4.8,1.1,6.9
	c2.6,4.8,1.2,10.7-3.3,13.8c-2.1,1.2-3.6,3.2-4.1,5.6c-0.6,2.4-0.2,4.9,1.1,6.9C109.2,379.6,109.5,382.3,108.8,384.9z M132.1,342.5
	c-1.9,1.2-3.2,3.1-3.6,5.3c-0.6,2.4-0.2,4.8,1.1,6.9c2.6,4.8,1.2,10.7-3.3,13.8c-2.1,1.2-3.6,3.2-4.1,5.6c-0.6,2.4-0.2,4.9,1.1,6.9
	c1.4,2.3,1.7,5,1,7.6c-0.5,2.6-2,4.9-4.3,6.2c-2.1,1.2-3.6,3.2-4.1,5.5c-0.6,2.2-0.3,4.5,0.8,6.4c1.2,1.9,1.4,4.3,0.6,7.3l-5.8-1.4
	c0.6-2.2,0.3-4.5-0.8-6.5c-1.1-1.9-1.3-4.3-0.6-7.2c0.5-2.6,2-4.9,4.3-6.2c2.1-1.2,3.6-3.2,4.1-5.6c0.6-2.4,0.2-4.9-1.1-7
	c-1.3-2.3-1.7-5-1-7.5c0.5-2.6,2-4.9,4.3-6.2c2.1-1.2,3.6-3.2,4.1-5.6c0.6-2.4,0.2-4.9-1.1-6.9c-1.4-2.3-1.7-5-1-7.5
	c0.7-2.9,2-5,3.8-6.1c1.9-1.2,3.2-3.2,3.7-5.4l5.8,1.4C135.3,339.3,134,341.4,132.1,342.5z"/>
<g>
	<path d="M287.3,281c-8.1-8.6-16.2-17.3-24.3-26c-5.1-5.5-10.3-11-15.4-16.5L223,212.2c-5.3-5.6-10.5-11.3-15.8-16.9
		c-8.6-9.2-17.2-18.4-25.8-27.5c-4.1-4.3-8.2-8.5-12.3-12.9c-3.1-3.3-5.8-7-9.1-10.1c-4.2-4-8.6-7.6-13-11.4
		c-35.8,33.8-66.3,72.8-90.4,115.7c5.4,2.6,10.7,5.1,15.8,7.6c15.3,7.4,30.5,14.8,45.7,22.2c15.3,7.5,30.7,15,46.1,22.5l45.8,22.3
		l33,16.2c1.9,0.9,3.7,1.9,5.7,2.9c12.5-20.5,27.4-38.8,43.8-55.8C290.7,284.9,289.1,282.9,287.3,281z M197.9,290.8l-4.9-3.5
		l12.8-17.9l-14.6-10.5l-5.2,7.3c-6.4,9-18.8,11.1-27.8,4.7c0,0-0.1,0-0.1-0.1c-3.2-2.3-5.6-5.5-7.1-9.1c-1.5-3.7-1.7-7.7-0.8-11.5
		c-7.5-6.8-8.7-18.1-2.8-26.3c5.9-8.2,17-10.7,25.8-5.8c3.3-2.1,7.3-3.1,11.2-2.9c3.9,0.1,7.7,1.5,10.9,3.8
		c9,6.4,11.1,18.8,4.7,27.8c0,0,0,0.1-0.1,0.1l-5.2,7.3l14.6,10.5l13.4-18.7l4.9,3.5L197.9,290.8z"/>
	<path d="M197.5,232.9c-0.6-3.7-2.6-7-5.7-9.1c-2.2-1.6-4.9-2.5-7.6-2.5c-2.7-0.1-5.4,0.6-7.8,2l-3,1.8l-3.1-1.7
		c-6.1-3.4-13.9-1.7-18,4c-2.1,2.7-3,6.1-2.5,9.5c0.4,3.4,2,6.6,4.5,8.9l2.6,2.4l-0.7,3.4c-0.6,2.7-0.4,5.5,0.6,8
		c0.9,2.6,2.6,4.8,4.8,6.4c3,2.3,6.7,3.1,10.4,2.4c3.7-0.5,7-2.6,9.1-5.6h0l14-19.5C197.4,240.3,198.2,236.6,197.5,232.9z"/>
</g>
</svg>
